<svg xmlns="http://www.w3.org/2000/svg" width="24" height="24" viewBox="0 0 24 24">
  <circle cx="12" cy="12" r="9" fill="#24292F"/>
  <path fill="#fff" d="M12 5.6a6.5 6.5 0 0 0-2 12.7c.3.1.4-.1.4-.3v-1.2c-1.7.4-2.1-.7-2.1-.7-.3-.7-.7-.9-.7-.9-.6-.4 0-.4 0-.4.6 0 1 .7 1 .7.6 1 1.5.7 1.8.5.1-.4.2-.7.4-.9-1.4-.2-2.8-.7-2.8-3A2.3 2.3 0 0 1 8.6 10c-.1-.2-.3-.8.1-1.7 0 0 .5-.2 1.8.7a6.1 6.1 0 0 1 3.2 0c1.2-.9 1.8-.7 1.8-.7.4.9.2 1.5.1 1.7a2.3 2.3 0 0 1 .6 1.6c0 2.4-1.4 2.9-2.8 3 .3.2.5.6.5 1.2V18c0 .2.1.4.5.3A6.5 6.5 0 0 0 12 5.6z"/>
</svg>