<svg xmlns="http://www.w3.org/2000/svg" width="24" height="24" viewBox="0 0 24 24">
  <rect x="3" y="3" width="18" height="18" rx="5" fill="#E6E7FF" stroke="#D3D3D3" stroke-width="1.2"/>
  <path fill="#DD4F47" d="M12 6.8a5.4 5.4 0 0 0-5.4 5.4c0 2.6 1.7 4.7 4.6 5.4 1.4.4 2-.4 1.6-1.2-.4-.8.1-1.5 1.2-1.5h1a3.8 3.8 0 0 0 3.8-3.7A6.5 6.5 0 0 0 12 6.8z"/>
  <circle cx="8.8" cy="12.4" r="1" fill="#fff"/>
  <circle cx="10.2" cy="9.9" r="1" fill="#fff"/>
  <circle cx="13" cy="9.9" r="1" fill="#fff"/>
  <circle cx="15.3" cy="12.4" r="1" fill="#fff"/>
</svg>